<?xml version="1.0"?>
<svg width="560" height="200" xmlns="http://www.w3.org/2000/svg" xmlns:svg="http://www.w3.org/2000/svg" xmlns:xlink="http://www.w3.org/1999/xlink">
 <!-- Created with SVG-edit - https://github.com/SVG-Edit/svgedit-->
 <defs>
  <symbol id="svg_2" viewBox="0, 0, 800, 500" xmlns="http://www.w3.org/2000/svg" xmlns:xlink="http://www.w3.org/1999/xlink">
   <g id="svg_1">
    <g id="svg_5">
     <path d="m303.383,275.75l150.234,0" fill-opacity="0" id="svg_6" stroke="#FFD919" stroke-linecap="round" stroke-width="6"/>
     <path d="m453.617,281.75l16,-6l-16,-6l0,12z" fill="#FFD919" id="svg_7" stroke="#FFD919" stroke-width="6"/>
    </g>
    <g id="svg_8">
     <path d="m324.383,325.25l150.234,0" fill-opacity="0" id="svg_9" stroke="#FFD919" stroke-linecap="round" stroke-width="6"/>
     <path d="m324.383,319.25l-16,6l16,6l0,-12z" fill="#FFD919" id="svg_10" stroke="#FFD919" stroke-width="6"/>
    </g>
    <g id="svg_11">
     <g id="svg_12">
      <path d="m597.806,188.223c23.395,-8.082 49.785,3.735 58.44,26.623c5.043,-3.926 10.916,-6.576 16.865,-8.82c34.301,-11.973 71.662,5.691 83.447,39.453c4.851,13.841 4.346,26.486 0.532,40.504c10.759,5.055 18.405,14.654 22.51,25.51c8.319,23.832 -4.565,50.004 -28.778,58.455c-17.218,5.89 -36.972,1.445 -49.194,-11.898c-7.241,21.076 -24.149,36.488 -44.752,44.691c-37.76,13.18 -78.888,-6.265 -91.862,-43.432l-0.479,-1.499c-24.114,0.984 -45.107,-15.16 -53.286,-36.789c-10.052,-28.798 5.517,-60.422 34.774,-70.634c7.509,-2.759 15.41,-3.423 23.309,-2.96l-0.304,-0.748c-8.319,-23.832 4.566,-50.004 28.778,-58.455l0,-0.001z" fill="#DDDDDD" id="svg_13"/>
      <path d="m597.806,188.223c23.395,-8.082 49.785,3.735 58.44,26.623c5.043,-3.926 10.916,-6.576 16.865,-8.82c34.301,-11.973 71.662,5.691 83.447,39.453c4.851,13.841 4.346,26.486 0.532,40.504c10.759,5.055 18.405,14.654 22.51,25.51c8.319,23.832 -4.565,50.004 -28.778,58.455c-17.218,5.89 -36.972,1.445 -49.194,-11.898c-7.241,21.076 -24.149,36.488 -44.752,44.691c-37.76,13.18 -78.888,-6.265 -91.862,-43.432l-0.479,-1.499c-24.114,0.984 -45.107,-15.16 -53.286,-36.789c-10.052,-28.798 5.517,-60.422 34.774,-70.634c7.509,-2.759 15.41,-3.423 23.309,-2.96l-0.304,-0.748c-8.319,-23.832 4.566,-50.004 28.778,-58.455l0,-0.001z" fill-opacity="0" id="svg_14" stroke="#000000" stroke-linecap="round" stroke-width="2.5"/>
     </g>
     <text fill="#000000" id="svg_15" transform="matrix(1, 0, -0, 1, 644.662, 295.773)">
      <tspan font-family="HelveticaNeue-Medium" font-size="38" id="svg_16" x="-73.549" y="14.402">Network</tspan>
     </text>
    </g>
    <g id="svg_17">
     <g id="svg_18">
      <path d="m62.263,170.25l191.474,0c6.22,0 11.263,6.138 11.263,13.71l0,233.079c0,7.573 -5.043,13.711 -11.263,13.711l-191.474,0c-6.22,0 -11.263,-6.138 -11.263,-13.711l0,-233.079c0,-7.572 5.043,-13.71 11.263,-13.71z" fill="#DDDDDD" id="svg_19"/>
      <path d="m62.263,170.25l191.474,0c6.22,0 11.263,6.138 11.263,13.71l0,233.079c0,7.573 -5.043,13.711 -11.263,13.711l-191.474,0c-6.22,0 -11.263,-6.138 -11.263,-13.711l0,-233.079c0,-7.572 5.043,-13.71 11.263,-13.71z" fill-opacity="0" id="svg_20" stroke="#000000" stroke-linecap="round" stroke-width="2.5"/>
     </g>
     <text fill="#000000" id="svg_21" transform="matrix(1, 0, -0, 1, 157.5, 300)">
      <tspan font-family="HelveticaNeue-Medium" font-size="38" id="svg_22" x="-72.884" y="14.402">Browser</tspan>
     </text>
    </g>
   </g>
  </symbol>
 </defs>
 <g class="layer">
  <title>Layer 1</title>
  <use id="svg_3" transform="matrix(1.82541 0 0 1.82541 -248.415 -134.383)" x="2.637791" xlink:href="#svg_2" y="8.14109"/>
  <g id="svg_4"/>
 </g>
</svg>